<svg width="52" height="50" viewBox="0 0 52 50" fill="none" xmlns="http://www.w3.org/2000/svg">
<path fill-rule="evenodd" clip-rule="evenodd" d="M25.7347 0C11.5163 0 0 11.4705 0 25.6323C0 36.9747 7.36656 46.5547 17.5961 49.951C18.8828 50.1753 19.3654 49.4063 19.3654 48.7335C19.3654 48.1247 19.3332 46.1062 19.3332 43.9595C12.8674 45.145 11.1946 42.3895 10.6799 40.9477C10.3904 40.2107 9.13582 37.9359 8.04209 37.3271C7.14138 36.8465 5.85464 35.661 8.00992 35.629C10.0365 35.5969 11.4841 37.4873 11.9666 38.2563C14.2828 42.1332 17.9821 41.0438 19.4619 40.3709C19.687 38.7048 20.3626 37.5834 21.1025 36.9426C15.3765 36.3018 9.39317 34.091 9.39317 24.2866C9.39317 21.4991 10.3904 19.1922 12.031 17.398C11.7736 16.7571 10.8729 14.1298 12.2883 10.6054C12.2883 10.6054 14.4436 9.93253 19.3654 13.2327C21.4241 12.656 23.6116 12.3676 25.799 12.3676C27.9865 12.3676 30.1739 12.656 32.2327 13.2327C37.1545 9.90049 39.3098 10.6054 39.3098 10.6054C40.7252 14.1298 39.8244 16.7571 39.5671 17.398C41.2077 19.1922 42.2049 21.4671 42.2049 24.2866C42.2049 34.1231 36.1894 36.3018 30.4635 36.9426C31.3963 37.7436 32.2005 39.2816 32.2005 41.6846C32.2005 45.1129 32.1684 47.8684 32.1684 48.7335C32.1684 49.4063 32.6509 50.2074 33.9376 49.951C44.1028 46.5547 51.4694 36.9426 51.4694 25.6323C51.4694 11.4705 39.9531 0 25.7347 0Z" fill="white"/>
</svg>
